<svg width="32" height="32" viewBox="0 0 32 32" fill="none" xmlns="http://www.w3.org/2000/svg">
    <path d="M0 4C0 1.79086 1.79086 0 4 0H28C30.2091 0 32 1.79086 32 4V28C32 30.2091 30.2091 32 28 32H4C1.79086 32 0 30.2091 0 28V4Z" fill="white" fill-opacity="0.01"/>
    <path d="M18.5307 20.4691C18.6715 20.61 18.7507 20.8011 18.7507 21.0003C18.7507 21.1996 18.6715 21.3907 18.5307 21.5316C18.3898 21.6725 18.1987 21.7516 17.9994 21.7516C17.8001 21.7516 17.609 21.6725 17.4682 21.5316L12.4681 16.5316C12.3982 16.4619 12.3428 16.3791 12.3049 16.2879C12.267 16.1968 12.2476 16.099 12.2476 16.0003C12.2476 15.9016 12.267 15.8039 12.3049 15.7127C12.3428 15.6215 12.3982 15.5388 12.4681 15.4691L17.4682 10.4691C17.609 10.3282 17.8001 10.249 17.9994 10.249C18.1987 10.249 18.3898 10.3282 18.5307 10.4691C18.6715 10.61 18.7507 10.8011 18.7507 11.0003C18.7507 11.1996 18.6715 11.3907 18.5307 11.5316L14.0625 15.9997L18.5307 20.4691Z" fill="#44546F"/>
</svg>
