<svg width="132" height="132" viewBox="0 0 132 132" fill="none" xmlns="http://www.w3.org/2000/svg">
    <path d="M14 1C6.8203 1 1 6.8203 1 14V118C1 125.18 6.8203 131 14 131H118C125.18 131 131 125.18 131 118V14C131 6.8203 125.18 1 118 1H14Z" fill="#626F86"/>
    <path d="M14 1C6.8203 1 1 6.8203 1 14V118C1 125.18 6.8203 131 14 131H118C125.18 131 131 125.18 131 118V14C131 6.8203 125.18 1 118 1H14Z" stroke="white" stroke-width="2"/>
    <path d="M98.1656 94.75C97.9462 95.1301 97.6305 95.4457 97.2503 95.6652C96.8702 95.8846 96.4389 96.0001 96 96H36C35.5614 95.9995 35.1306 95.8837 34.7509 95.6641C34.3712 95.4445 34.056 95.1288 33.8369 94.7488C33.6177 94.3689 33.5025 93.9379 33.5026 93.4993C33.5027 93.0607 33.6182 92.6298 33.8375 92.25C38.5969 84.0218 45.9313 78.1218 54.4906 75.325C50.2568 72.8045 46.9673 68.964 45.1275 64.3931C43.2876 59.8222 42.999 54.7737 44.3061 50.0229C45.6131 45.2722 48.4435 41.0818 52.3626 38.0953C56.2817 35.1089 61.0727 33.4915 66 33.4915C70.9273 33.4915 75.7183 35.1089 79.6374 38.0953C83.5565 41.0818 86.3869 45.2722 87.6939 50.0229C89.001 54.7737 88.7124 59.8222 86.8725 64.3931C85.0327 68.964 81.7432 72.8045 77.5094 75.325C86.0688 78.1218 93.4031 84.0218 98.1625 92.25C98.3824 92.6297 98.4985 93.0607 98.499 93.4995C98.4996 93.9384 98.3846 94.3696 98.1656 94.75Z" fill="white"/>
</svg>
