<svg width="182" height="40" viewBox="0 0 182 40" fill="none" xmlns="http://www.w3.org/2000/svg">
<path d="M0 8C0 3.58172 3.58172 0 8 0H174C178.418 0 182 3.58172 182 8V32C182 36.4183 178.418 40 174 40H8C3.58172 40 0 36.4183 0 32V8Z" fill="white"/>
<path d="M0.5 8C0.5 3.85786 3.85786 0.5 8 0.5H174C178.142 0.5 181.5 3.85786 181.5 8V32C181.5 36.1421 178.142 39.5 174 39.5H8C3.85786 39.5 0.5 36.1421 0.5 32V8Z" stroke="#091E42" stroke-opacity="0.14"/>
<g clip-path="url(#clip0_175_30445)">
<path d="M35.805 20.2302C35.805 19.5504 35.7499 18.867 35.6323 18.1982H26.2V22.0491H31.6014C31.3773 23.291 30.6571 24.3897 29.6025 25.0878V27.5864H32.825C34.7173 25.8448 35.805 23.2726 35.805 20.2302Z" fill="#4285F4"/>
<path d="M26.1999 30.0008C28.897 30.0008 31.1714 29.1152 32.8286 27.5867L29.6061 25.088C28.7096 25.698 27.5521 26.0434 26.2036 26.0434C23.5947 26.0434 21.3827 24.2833 20.589 21.917H17.2637V24.4928C18.9613 27.8696 22.4189 30.0008 26.1999 30.0008Z" fill="#34A853"/>
<path d="M20.5854 21.9168C20.1665 20.6748 20.1665 19.33 20.5854 18.088V15.5122H17.2637C15.8454 18.3379 15.8454 21.6669 17.2637 24.4925L20.5854 21.9168Z" fill="#FBBC04"/>
<path d="M26.1999 13.9581C27.6256 13.936 29.0035 14.4725 30.036 15.4572L32.8911 12.6022C31.0833 10.9046 28.6838 9.97128 26.1999 10.0007C22.4189 10.0007 18.9613 12.1319 17.2637 15.5123L20.5854 18.0881C21.3754 15.7181 23.5911 13.9581 26.1999 13.9581Z" fill="#EA4335"/>
</g>
<path d="M47.78 15.186C48.424 15.186 48.9747 15.2793 49.432 15.466C49.8893 15.6433 50.3327 15.9233 50.762 16.306L50.034 17.118C49.67 16.8287 49.3107 16.6187 48.956 16.488C48.6107 16.348 48.2373 16.278 47.836 16.278C47.332 16.278 46.9167 16.3947 46.59 16.628C46.2633 16.8613 46.1 17.202 46.1 17.65C46.1 17.93 46.156 18.168 46.268 18.364C46.38 18.5507 46.5853 18.7233 46.884 18.882C47.192 19.0407 47.6353 19.2087 48.214 19.386C48.8207 19.5727 49.3247 19.7733 49.726 19.988C50.1273 20.2027 50.4493 20.5013 50.692 20.884C50.944 21.2573 51.07 21.7333 51.07 22.312C51.07 22.872 50.93 23.3667 50.65 23.796C50.3793 24.2253 49.9827 24.5613 49.46 24.804C48.9467 25.0467 48.3353 25.168 47.626 25.168C46.2913 25.168 45.1993 24.7527 44.35 23.922L45.078 23.11C45.47 23.4273 45.8667 23.67 46.268 23.838C46.6693 23.9967 47.1173 24.076 47.612 24.076C48.2093 24.076 48.704 23.9313 49.096 23.642C49.488 23.3433 49.684 22.914 49.684 22.354C49.684 22.0367 49.6233 21.7753 49.502 21.57C49.3807 21.3553 49.1707 21.164 48.872 20.996C48.5827 20.828 48.158 20.66 47.598 20.492C46.6087 20.1933 45.8853 19.834 45.428 19.414C44.9707 18.994 44.742 18.4247 44.742 17.706C44.742 17.2207 44.868 16.7867 45.12 16.404C45.3813 16.0213 45.7407 15.7227 46.198 15.508C46.6647 15.2933 47.192 15.186 47.78 15.186ZM54.2049 25H52.9169V17.622H54.2049V25ZM53.5469 14.08C53.8176 14.08 54.0369 14.164 54.2049 14.332C54.3729 14.5 54.4569 14.71 54.4569 14.962C54.4569 15.214 54.3729 15.424 54.2049 15.592C54.0369 15.7507 53.8176 15.83 53.5469 15.83C53.2856 15.83 53.0709 15.7507 52.9029 15.592C52.7349 15.424 52.6509 15.214 52.6509 14.962C52.6509 14.71 52.7349 14.5 52.9029 14.332C53.0709 14.164 53.2856 14.08 53.5469 14.08ZM62.778 17.958C62.498 18.0513 62.19 18.112 61.854 18.14C61.518 18.168 61.1074 18.182 60.622 18.182C61.49 18.574 61.924 19.1947 61.924 20.044C61.924 20.7813 61.672 21.3833 61.168 21.85C60.664 22.3167 59.978 22.55 59.11 22.55C58.774 22.55 58.4614 22.5033 58.172 22.41C58.06 22.4847 57.9714 22.5873 57.906 22.718C57.8407 22.8393 57.808 22.9653 57.808 23.096C57.808 23.4973 58.13 23.698 58.774 23.698H59.95C60.4447 23.698 60.8834 23.7867 61.266 23.964C61.6487 24.1413 61.9427 24.384 62.148 24.692C62.3627 25 62.47 25.35 62.47 25.742C62.47 26.4607 62.176 27.0113 61.588 27.394C61 27.786 60.1414 27.982 59.012 27.982C58.2187 27.982 57.5887 27.898 57.122 27.73C56.6647 27.5713 56.338 27.3287 56.142 27.002C55.946 26.6753 55.848 26.2553 55.848 25.742H57.01C57.01 26.0407 57.066 26.274 57.178 26.442C57.29 26.6193 57.4907 26.75 57.78 26.834C58.0694 26.9273 58.48 26.974 59.012 26.974C59.7867 26.974 60.3374 26.876 60.664 26.68C61 26.4933 61.168 26.2087 61.168 25.826C61.168 25.4807 61.0374 25.2193 60.776 25.042C60.5147 24.8647 60.1507 24.776 59.684 24.776H58.522C57.8967 24.776 57.4207 24.6453 57.094 24.384C56.7767 24.1133 56.618 23.7773 56.618 23.376C56.618 23.1333 56.688 22.9 56.828 22.676C56.968 22.452 57.1687 22.2513 57.43 22.074C57.0007 21.85 56.6834 21.5747 56.478 21.248C56.282 20.912 56.184 20.506 56.184 20.03C56.184 19.5353 56.3054 19.092 56.548 18.7C56.8 18.308 57.1407 18.0047 57.57 17.79C58.0087 17.566 58.494 17.454 59.026 17.454C59.6047 17.4633 60.09 17.4447 60.482 17.398C60.874 17.342 61.196 17.272 61.448 17.188C61.7094 17.0947 62.0267 16.964 62.4 16.796L62.778 17.958ZM59.026 18.378C58.5407 18.378 58.1627 18.532 57.892 18.84C57.6307 19.1387 57.5 19.5353 57.5 20.03C57.5 20.534 57.6354 20.94 57.906 21.248C58.1767 21.5467 58.5594 21.696 59.054 21.696C59.558 21.696 59.9407 21.5513 60.202 21.262C60.4727 20.9633 60.608 20.548 60.608 20.016C60.608 18.924 60.0807 18.378 59.026 18.378ZM67.5315 17.454C68.2035 17.454 68.7262 17.6547 69.0995 18.056C69.4822 18.4573 69.6735 19.008 69.6735 19.708V25H68.3855V19.89C68.3855 19.3673 68.2875 18.9987 68.0915 18.784C67.8955 18.5693 67.6062 18.462 67.2235 18.462C66.8315 18.462 66.4862 18.574 66.1875 18.798C65.8888 19.022 65.6088 19.344 65.3475 19.764V25H64.0595V17.622H65.1655L65.2775 18.714C65.5388 18.322 65.8608 18.014 66.2435 17.79C66.6355 17.566 67.0648 17.454 67.5315 17.454ZM77.16 25H75.872V17.622H77.16V25ZM76.502 14.08C76.7727 14.08 76.992 14.164 77.16 14.332C77.328 14.5 77.412 14.71 77.412 14.962C77.412 15.214 77.328 15.424 77.16 15.592C76.992 15.7507 76.7727 15.83 76.502 15.83C76.2407 15.83 76.026 15.7507 75.858 15.592C75.69 15.424 75.606 15.214 75.606 14.962C75.606 14.71 75.69 14.5 75.858 14.332C76.026 14.164 76.2407 14.08 76.502 14.08ZM83.2131 17.454C83.8851 17.454 84.4078 17.6547 84.7811 18.056C85.1638 18.4573 85.3551 19.008 85.3551 19.708V25H84.0671V19.89C84.0671 19.3673 83.9691 18.9987 83.7731 18.784C83.5771 18.5693 83.2878 18.462 82.9051 18.462C82.5131 18.462 82.1678 18.574 81.8691 18.798C81.5705 19.022 81.2905 19.344 81.0291 19.764V25H79.7411V17.622H80.8471L80.9591 18.714C81.2205 18.322 81.5425 18.014 81.9251 17.79C82.3171 17.566 82.7465 17.454 83.2131 17.454ZM98.3436 25H96.5936L95.3056 18.784L93.9756 25H92.2676L90.5456 17.622H91.8336L93.1636 24.104L94.6196 17.622H96.0616L97.4476 24.104L98.7916 17.622H100.024L98.3436 25ZM102.877 25H101.589V17.622H102.877V25ZM102.219 14.08C102.489 14.08 102.709 14.164 102.877 14.332C103.045 14.5 103.129 14.71 103.129 14.962C103.129 15.214 103.045 15.424 102.877 15.592C102.709 15.7507 102.489 15.83 102.219 15.83C101.957 15.83 101.743 15.7507 101.575 15.592C101.407 15.424 101.323 15.214 101.323 14.962C101.323 14.71 101.407 14.5 101.575 14.332C101.743 14.164 101.957 14.08 102.219 14.08ZM109.224 24.664C108.739 25 108.188 25.168 107.572 25.168C106.947 25.168 106.457 24.9907 106.102 24.636C105.757 24.272 105.584 23.7493 105.584 23.068V18.616H104.296V17.622H105.584V15.956L106.872 15.802V17.622H108.622L108.482 18.616H106.872V23.012C106.872 23.3947 106.937 23.6747 107.068 23.852C107.208 24.02 107.437 24.104 107.754 24.104C108.043 24.104 108.37 24.006 108.734 23.81L109.224 24.664ZM113.989 17.454C114.661 17.454 115.183 17.6547 115.557 18.056C115.939 18.4573 116.131 19.008 116.131 19.708V25H114.843V19.89C114.843 19.3673 114.74 18.9987 114.535 18.784C114.339 18.5693 114.049 18.462 113.667 18.462C113.284 18.462 112.943 18.574 112.645 18.798C112.346 19.022 112.066 19.3393 111.805 19.75V25H110.517V14.668L111.805 14.528V18.644C112.383 17.8507 113.111 17.454 113.989 17.454ZM125.997 15.186C126.604 15.186 127.126 15.2747 127.565 15.452C128.013 15.62 128.456 15.886 128.895 16.25L128.111 17.062C127.766 16.782 127.434 16.5813 127.117 16.46C126.8 16.3387 126.426 16.278 125.997 16.278C125.502 16.278 125.045 16.4133 124.625 16.684C124.214 16.9453 123.878 17.37 123.617 17.958C123.356 18.5367 123.225 19.274 123.225 20.17C123.225 21.5233 123.444 22.5127 123.883 23.138C124.331 23.7633 124.989 24.076 125.857 24.076C126.566 24.076 127.178 23.9313 127.691 23.642V20.73H125.983L125.829 19.652H129.007V24.314C128.008 24.8833 126.958 25.168 125.857 25.168C124.588 25.168 123.594 24.7433 122.875 23.894C122.166 23.0447 121.811 21.8033 121.811 20.17C121.811 19.1247 121.998 18.2287 122.371 17.482C122.754 16.726 123.262 16.1567 123.897 15.774C124.541 15.382 125.241 15.186 125.997 15.186ZM133.975 17.454C135.011 17.454 135.814 17.7993 136.383 18.49C136.962 19.1807 137.251 20.1187 137.251 21.304C137.251 22.0693 137.12 22.746 136.859 23.334C136.598 23.9127 136.22 24.3653 135.725 24.692C135.23 25.0093 134.642 25.168 133.961 25.168C132.925 25.168 132.118 24.8227 131.539 24.132C130.96 23.4413 130.671 22.5033 130.671 21.318C130.671 20.5527 130.802 19.8807 131.063 19.302C131.324 18.714 131.702 18.2613 132.197 17.944C132.692 17.6173 133.284 17.454 133.975 17.454ZM133.975 18.49C132.696 18.49 132.057 19.4327 132.057 21.318C132.057 23.194 132.692 24.132 133.961 24.132C135.23 24.132 135.865 23.1893 135.865 21.304C135.865 19.428 135.235 18.49 133.975 18.49ZM142.151 17.454C143.187 17.454 143.989 17.7993 144.559 18.49C145.137 19.1807 145.427 20.1187 145.427 21.304C145.427 22.0693 145.296 22.746 145.035 23.334C144.773 23.9127 144.395 24.3653 143.901 24.692C143.406 25.0093 142.818 25.168 142.137 25.168C141.101 25.168 140.293 24.8227 139.715 24.132C139.136 23.4413 138.847 22.5033 138.847 21.318C138.847 20.5527 138.977 19.8807 139.239 19.302C139.5 18.714 139.878 18.2613 140.373 17.944C140.867 17.6173 141.46 17.454 142.151 17.454ZM142.151 18.49C140.872 18.49 140.233 19.4327 140.233 21.318C140.233 23.194 140.867 24.132 142.137 24.132C143.406 24.132 144.041 23.1893 144.041 21.304C144.041 19.428 143.411 18.49 142.151 18.49ZM153.505 17.958C153.225 18.0513 152.917 18.112 152.581 18.14C152.245 18.168 151.834 18.182 151.349 18.182C152.217 18.574 152.651 19.1947 152.651 20.044C152.651 20.7813 152.399 21.3833 151.895 21.85C151.391 22.3167 150.705 22.55 149.837 22.55C149.501 22.55 149.188 22.5033 148.899 22.41C148.787 22.4847 148.698 22.5873 148.633 22.718C148.567 22.8393 148.535 22.9653 148.535 23.096C148.535 23.4973 148.857 23.698 149.501 23.698H150.677C151.171 23.698 151.61 23.7867 151.993 23.964C152.375 24.1413 152.669 24.384 152.875 24.692C153.089 25 153.197 25.35 153.197 25.742C153.197 26.4607 152.903 27.0113 152.315 27.394C151.727 27.786 150.868 27.982 149.739 27.982C148.945 27.982 148.315 27.898 147.849 27.73C147.391 27.5713 147.065 27.3287 146.869 27.002C146.673 26.6753 146.575 26.2553 146.575 25.742H147.737C147.737 26.0407 147.793 26.274 147.905 26.442C148.017 26.6193 148.217 26.75 148.507 26.834C148.796 26.9273 149.207 26.974 149.739 26.974C150.513 26.974 151.064 26.876 151.391 26.68C151.727 26.4933 151.895 26.2087 151.895 25.826C151.895 25.4807 151.764 25.2193 151.503 25.042C151.241 24.8647 150.877 24.776 150.411 24.776H149.249C148.623 24.776 148.147 24.6453 147.821 24.384C147.503 24.1133 147.345 23.7773 147.345 23.376C147.345 23.1333 147.415 22.9 147.555 22.676C147.695 22.452 147.895 22.2513 148.157 22.074C147.727 21.85 147.41 21.5747 147.205 21.248C147.009 20.912 146.911 20.506 146.911 20.03C146.911 19.5353 147.032 19.092 147.275 18.7C147.527 18.308 147.867 18.0047 148.297 17.79C148.735 17.566 149.221 17.454 149.753 17.454C150.331 17.4633 150.817 17.4447 151.209 17.398C151.601 17.342 151.923 17.272 152.175 17.188C152.436 17.0947 152.753 16.964 153.127 16.796L153.505 17.958ZM149.753 18.378C149.267 18.378 148.889 18.532 148.619 18.84C148.357 19.1387 148.227 19.5353 148.227 20.03C148.227 20.534 148.362 20.94 148.633 21.248C148.903 21.5467 149.286 21.696 149.781 21.696C150.285 21.696 150.667 21.5513 150.929 21.262C151.199 20.9633 151.335 20.548 151.335 20.016C151.335 18.924 150.807 18.378 149.753 18.378ZM156.242 25.168C155.766 25.168 155.388 25.028 155.108 24.748C154.837 24.4587 154.702 24.0573 154.702 23.544V14.654L155.99 14.5V23.516C155.99 23.712 156.023 23.8613 156.088 23.964C156.163 24.0573 156.284 24.104 156.452 24.104C156.629 24.104 156.788 24.076 156.928 24.02L157.264 24.916C156.956 25.084 156.615 25.168 156.242 25.168ZM164.447 21.094C164.447 21.3087 164.438 21.528 164.419 21.752H159.715C159.771 22.564 159.976 23.1613 160.331 23.544C160.686 23.9267 161.143 24.118 161.703 24.118C162.058 24.118 162.384 24.0667 162.683 23.964C162.982 23.8613 163.294 23.698 163.621 23.474L164.181 24.244C163.397 24.86 162.538 25.168 161.605 25.168C160.578 25.168 159.776 24.832 159.197 24.16C158.628 23.488 158.343 22.564 158.343 21.388C158.343 20.6227 158.464 19.946 158.707 19.358C158.959 18.7607 159.314 18.294 159.771 17.958C160.238 17.622 160.784 17.454 161.409 17.454C162.389 17.454 163.14 17.776 163.663 18.42C164.186 19.064 164.447 19.9553 164.447 21.094ZM163.173 20.716C163.173 19.988 163.028 19.4327 162.739 19.05C162.45 18.6673 162.016 18.476 161.437 18.476C160.382 18.476 159.808 19.2507 159.715 20.8H163.173V20.716Z" fill="#172B4D"/>
<defs>
<clipPath id="clip0_175_30445">
<rect width="20" height="20" fill="white" transform="translate(16 10)"/>
</clipPath>
</defs>
</svg>
